# File created by Blade
# Date/Time:  Fri Jan 16 15:45:56 2015
#---------------------------------------------------------
:version 1.10
:name HOM
:units
  mass 1.0
  length 1.000000
  angle deg
:documentation
     Acclaim Skeleton File
:root
   axis xyz
   order TX TY TZ RX RY RZ
   position 0.000000 0.000000 0.000000
   orientation 0 0 0
:bonedata
   begin
      id 1
      name Spine_dum
      direction 0.000000 1.000000 0.000000
      length 7.170412
      axis 0.0 0.0 0.0 xyz
   end
   begin
      id 2
      name LeftUpLeg_dum
      direction 1.000000 0.000000 0.000000
      length 4.318350
      axis 0.0 0.0 0.0 xyz
   end
   begin
      id 3
      name RightUpLeg_dum
      direction -1.000000 0.000000 0.000000
      length 4.318350
      axis 0.0 0.0 0.0 xyz
   end
   begin
      id 4
      name Spine
      direction 0.000000 1.000000 0.000000
      length 0.000000
      axis 0.0 0.0 0.0 xyz
      dof rx ry rz
   end
   begin
      id 5
      name Spine_dum1
      direction 0.000000 1.000000 0.000000
      length 14.276153
      axis 0.0 0.0 0.0 xyz
   end
   begin
      id 6
      name Spine_dum2
      direction 0.000000 1.000000 0.000000
      length 10.718243
      axis 0.0 0.0 0.0 xyz
   end
   begin
      id 7
      name Spine_dum3
      direction 0.000000 1.000000 0.000000
      length 10.718243
      axis 0.0 0.0 0.0 xyz
   end
   begin
      id 8
      name Head
      direction 0.000000 1.000000 0.000000
      length 4.527550
      axis 0.0 0.0 0.0 xyz
      dof rx ry rz
   end
   begin
      id 9
      name LeftShoulder
      direction 1.000000 0.000000 0.000000
      length 7.058872
      axis 0.0 0.0 -90.0 xyz
      dof rx ry rz
   end
   begin
      id 10
      name LeftArm
      direction 1.000000 0.000000 0.000000
      length 10.955525
      axis 0.0 0.0 -90.0 xyz
      dof rx ry rz
   end
   begin
      id 11
      name LeftForeArm
      direction 1.000000 0.000000 0.000000
      length 8.193716
      axis 0.0 0.0 -90.0 xyz
      dof ry rz rx
   end
   begin
      id 12
      name LeftHand
      direction 0.000000 0.000000 0.000000
      length 0.000000
      axis 0.0 0.0 -90.0 xyz
      dof rx ry rz
   end
   begin
      id 13
      name LeftHand_dum1
      direction 0.000000 0.000000 0.000000
      length 0.000000
      axis 0.0 0.0 -90.0 xyz
   end
   begin
      id 14
      name LeftHand_dum2
      direction 1.000000 0.000000 0.000000
      length 3.937000
      axis 0.0 0.0 -90.0 xyz
   end
   begin
      id 15
      name LeftHandThumb1
      direction 0.000000 0.000000 1.000000
      length 3.937000
      axis 0.0 0.0 -90.0 xyz
      dof rx rz ry
   end
   begin
      id 16
      name RightShoulder
      direction -1.000000 0.000000 0.000000
      length 7.058872
      axis 0.0 0.0 90.0 xyz
      dof rx ry rz
   end
   begin
      id 17
      name RightArm
      direction -1.000000 0.000000 0.000000
      length 10.955525
      axis 0.0 0.0 90.0 xyz
      dof rx ry rz
   end
   begin
      id 18
      name RightForeArm
      direction -1.000000 0.000000 0.000000
      length 8.193716
      axis 0.0 0.0 90.0 xyz
      dof ry rz rx
   end
   begin
      id 19
      name RightHand
      direction 0.000000 0.000000 0.000000
      length 0.000000
      axis 0.0 0.0 90.0 xyz
      dof rx ry rz
   end
   begin
      id 20
      name RightHand_dum1
      direction 0.000000 0.000000 0.000000
      length 0.000000
      axis 0.0 0.0 90.0 xyz
   end
   begin
      id 21
      name RightHand_dum2
      direction -1.000000 0.000000 0.000000
      length 3.937000
      axis 0.0 0.0 90.0 xyz
   end
   begin
      id 22
      name RightHandThumb1
      direction 0.000000 0.000000 1.000000
      length 3.937000
      axis 0.0 0.0 90.0 xyz
      dof rx rz ry
   end
   begin
      id 23
      name LeftUpLeg
      direction 0.000000 -1.000000 0.000000
      length 17.323638
      axis 0.0 0.0 0.0 xyz
      dof rx ry rz
   end
   begin
      id 24
      name LeftLeg
      direction 0.000000 -1.000000 0.000000
      length 16.270368
      axis 0.0 0.0 0.0 xyz
      dof rx ry rz
   end
   begin
      id 25
      name LeftFoot
      direction 0.000000 -0.258819 0.965926
      length 4.922846
      axis 15.0 0.0 0.0 xyz
      dof rx ry rz
   end
   begin
      id 26
      name LeftToeBase
      direction 0.000000 0.000000 1.000000
      length 2.952750
      axis 0.0 0.0 0.0 xyz
      dof rx ry rz
   end
   begin
      id 27
      name RightUpLeg
      direction 0.000000 -1.000000 0.000000
      length 17.323638
      axis 0.0 0.0 0.0 xyz
      dof rx ry rz
   end
   begin
      id 28
      name RightLeg
      direction 0.000000 -1.000000 0.000000
      length 16.270368
      axis 0.0 0.0 0.0 xyz
      dof rx ry rz
   end
   begin
      id 29
      name RightFoot
      direction 0.000000 -0.258819 0.965926
      length 4.922846
      axis 15.0 0.0 0.0 xyz
      dof rx ry rz
   end
   begin
      id 30
      name RightToeBase
      direction 0.000000 0.000000 1.000000
      length 2.952750
      axis 0.0 0.0 0.0 xyz
      dof rx ry rz
   end
:hierarchy
   begin
      root Spine_dum LeftUpLeg_dum RightUpLeg_dum
      Spine_dum Spine
      LeftUpLeg_dum LeftUpLeg
      RightUpLeg_dum RightUpLeg
      Spine Spine_dum1 Spine_dum2 Spine_dum3
      Spine_dum1 Head
      Spine_dum2 LeftShoulder
      Spine_dum3 RightShoulder
      LeftShoulder LeftArm
      LeftArm LeftForeArm
      LeftForeArm LeftHand
      LeftHand LeftHand_dum1 LeftHand_dum2
      LeftHand_dum1 LeftHandThumb1
      RightShoulder RightArm
      RightArm RightForeArm
      RightForeArm RightHand
      RightHand RightHand_dum1 RightHand_dum2
      RightHand_dum1 RightHandThumb1
      LeftUpLeg LeftLeg
      LeftLeg LeftFoot
      LeftFoot LeftToeBase
      RightUpLeg RightLeg
      RightLeg RightFoot
      RightFoot RightToeBase
   end

# File created by Blade
# Date/Time:  Fri Jan 16 15:45:48 2015
# Frame Rate: 120.000 fps
#------------------------------------------------------
:FULLY-SPECIFIED
:DEGREES
138
root -5.664880 35.277379 -10.071167 1.375704 -0.938355 -4.663578
Spine -6.137677 0.639949 2.868549
Head -2.199307 0.496218 8.147066
LeftShoulder -19.050147 9.702214 -10.650733
LeftArm 22.412785 21.308315 -72.136510
LeftForeArm 18.665375 -0.000000 12.762640
LeftHand 1.073802 -0.000000 -8.929580
LeftHandThumb1 -26.253704 0.000000 33.147579
RightShoulder -15.696172 28.730141 -45.680336
RightArm 40.717974 41.945682 0.776702
RightForeArm -19.770745 -0.000000 12.230183
RightHand -1.944543 -0.000000 -28.881838
RightHandThumb1 -24.326973 -0.000000 -32.862282
LeftUpLeg 7.622400 11.875684 5.825523
LeftLeg -9.692769 -0.000000 0.000000
LeftFoot -13.558521 25.222357 -10.040901
LeftToeBase 21.794541 -0.000000 -0.000000
RightUpLeg 6.054218 -8.018465 1.714629
RightLeg -5.021758 -0.000000 0.000000
RightFoot -5.350569 -25.986756 7.064519
RightToeBase 12.058050 -0.000000 -0.000000
139
root -5.665520 35.277361 -10.072162 1.395093 -0.901948 -4.657907
Spine -6.152483 0.639139 2.807641
Head -2.255026 0.439531 8.187621
LeftShoulder -19.073869 9.688793 -10.679217
LeftArm 22.428509 21.230713 -72.040542
LeftForeArm 18.709792 -0.000000 12.672762
LeftHand 1.091103 -0.000000 -8.872152
LeftHandThumb1 -26.253704 0.000000 33.147579
RightShoulder -15.758134 28.789088 -45.699796
RightArm 40.883974 42.137267 0.866447
RightForeArm -19.840779 -0.000000 12.225465
RightHand -1.980910 -0.000000 -29.138724
RightHandThumb1 -24.326973 -0.000000 -32.862282
LeftUpLeg 7.592469 11.834088 5.815345
LeftLeg -9.693464 -0.000000 0.000000
LeftFoot -13.557450 25.227705 -10.051745
LeftToeBase 21.781821 -0.000000 -0.000000
RightUpLeg 6.034246 -8.054396 1.717085
RightLeg -5.019241 -0.000000 0.000000
RightFoot -5.355167 -25.994274 7.053964
RightToeBase 12.076021 -0.000000 -0.000000
140
root -5.662591 35.276863 -10.073937 1.422137 -0.880664 -4.647134
Spine -6.162203 0.643922 2.758074
Head -2.345671 0.416300 8.212702
LeftShoulder -19.118994 9.631627 -10.709406
LeftArm 22.398700 21.188120 -71.963786
LeftForeArm 18.801309 -0.000000 12.599970
LeftHand 1.061556 -0.000000 -8.892181
LeftHandThumb1 -26.253704 0.000000 33.147579
RightShoulder -15.896125 28.887803 -45.807043
RightArm 41.080545 42.225072 1.017538
RightForeArm -19.791640 -0.000000 12.170663
RightHand -2.266985 -0.000000 -29.075201
RightHandThumb1 -24.326973 -0.000000 -32.862282
LeftUpLeg 7.586013 11.706115 5.790852
LeftLeg -9.747624 -0.000000 0.000000
LeftFoot -13.538430 25.310765 -10.080410
LeftToeBase 21.806260 -0.000000 -0.000000
RightUpLeg 6.003939 -8.067982 1.704896
RightLeg -5.013151 -0.000000 0.000000
RightFoot -5.365071 -26.003651 7.054155
RightToeBase 12.085069 -0.000000 -0.000000
141
root -5.662622 35.276914 -10.074888 1.436611 -0.866128 -4.652307
Spine -6.171383 0.674039 2.739653
Head -2.393278 0.403065 8.194021
LeftShoulder -19.113980 9.605611 -10.760423
LeftArm 22.369546 21.143856 -71.855126
LeftForeArm 18.764753 -0.000000 12.532552
LeftHand 1.076238 -0.000000 -9.045811
LeftHandThumb1 -26.253704 0.000000 33.147579
RightShoulder -16.189389 29.351076 -46.187084
RightArm 41.344711 41.907611 1.466260
RightForeArm -19.826802 -0.000000 12.235915
RightHand -2.086422 0.000000 -29.814168
RightHandThumb1 -24.326973 -0.000000 -32.862282
LeftUpLeg 7.534477 11.813387 5.796354
LeftLeg -9.689777 -0.000000 0.000000
LeftFoot -13.565299 25.207887 -10.059563
LeftToeBase 21.806177 -0.000000 -0.000000
RightUpLeg 5.988403 -8.063317 1.715677
RightLeg -5.013100 -0.000000 0.000000
RightFoot -5.363533 -26.029849 7.043947
RightToeBase 12.121488 -0.000000 -0.000000
142
root -5.658838 35.276768 -10.075838 1.452436 -0.839959 -4.640049
Spine -6.172429 0.678028 2.707948
Head -2.446480 0.387841 8.213845
LeftShoulder -19.132672 9.590002 -10.823821
LeftArm 22.355383 21.086547 -71.738352
LeftForeArm 18.776357 0.000000 12.480670
LeftHand 1.086295 -0.000000 -9.089863
LeftHandThumb1 -26.253704 0.000000 33.147579
RightShoulder -16.345480 29.500337 -46.328133
RightArm 41.574471 41.980173 1.696682
RightForeArm -19.837487 -0.000000 12.234260
RightHand -2.079123 0.000000 -29.891789
RightHandThumb1 -24.326973 -0.000000 -32.862282
LeftUpLeg 7.539334 11.694629 5.771545
LeftLeg -9.742526 -0.000000 0.000000
LeftFoot -13.529306 25.281254 -10.066721
LeftToeBase 21.798619 -0.000000 -0.000000
RightUpLeg 5.971811 -8.098057 1.699129
RightLeg -5.009844 -0.000000 0.000000
RightFoot -5.379295 -26.023827 7.062281
RightToeBase 12.108003 -0.000000 -0.000000
143
root -5.656560 35.275552 -10.076386 1.470491 -0.821783 -4.638297
Spine -6.194309 0.670667 2.655346
Head -2.470954 0.372119 8.273756
LeftShoulder -19.182078 9.627569 -10.845070
LeftArm 22.371743 21.001668 -71.684188
LeftForeArm 18.853536 0.000000 12.408396
LeftHand 1.025385 0.000000 -9.239175
LeftHandThumb1 -26.253704 0.000000 33.147579
RightShoulder -16.145378 29.175986 -46.069048
RightArm 41.400430 42.445592 1.309477
RightForeArm -19.618670 -0.000000 12.167438
RightHand -2.333244 -0.000000 -29.966649
RightHandThumb1 -24.326973 -0.000000 -32.862282
LeftUpLeg 7.520890 11.711621 5.763807
LeftLeg -9.753593 -0.000000 0.000000
LeftFoot -13.513748 25.252086 -10.048478
LeftToeBase 21.764668 -0.000000 -0.000000
RightUpLeg 5.955544 -8.109460 1.696852
RightLeg -5.011070 -0.000000 0.000000
RightFoot -5.380928 -26.017464 7.046659
RightToeBase 12.116287 -0.000000 -0.000000
